<svg xmlns="http://www.w3.org/2000/svg" viewBox="0 0 180 108" fill="none">
  <path d="M34 99A58 58 0 1 1 146 99" stroke="currentColor" stroke-width="9" stroke-linecap="round" opacity=".09"/>
  <path d="M34 99A58 58 0 0 1 56.7 36.5" stroke="currentColor" stroke-width="6" stroke-linecap="round" opacity=".24"/>
  <path d="M56.7 36.5A58 58 0 0 1 123.3 36.5" stroke="currentColor" stroke-width="6" stroke-linecap="round" opacity=".43"/>
  <path d="M123.3 36.5A58 58 0 0 1 146 99" stroke="currentColor" stroke-width="6" stroke-linecap="round" opacity=".72"/>
  <path d="M44.6 96.2A47 47 0 1 1 135.4 96.2" stroke="currentColor" stroke-width="1" opacity=".14"/>
  <path d="M29.1 100.3l10.7-2.8M30.8 62.5l10.3 3.7M53.9 32.4l6.3 9M90 21v12M126.1 32.4l-6.3 9M149.2 62.5l-10.3 3.7M150.9 100.3l-10.7-2.8" stroke="currentColor" stroke-width="1.5" stroke-linecap="round" opacity=".58"/>
  <g fill="currentColor" font-family="sans-serif" font-size="14" font-weight="700" letter-spacing=".4" opacity=".68">
    <text x="17" y="88">LOW</text>
    <text x="90" y="13" text-anchor="middle">MID</text>
    <text x="163" y="88" text-anchor="end">HIGH</text>
  </g>
</svg>
